<svg xmlns="http://www.w3.org/2000/svg" width="512" height="512" viewBox="0 0 24 24"><path fill="#000000" d="M12.217 18.692q.223-.025.35-.154q.125-.128.125-.31q0-.213-.144-.329q-.143-.116-.367-.091q-1.025.075-2.29-.64q-1.266-.714-1.566-2.39q-.05-.236-.166-.353t-.296-.117q-.196 0-.334.147q-.139.147-.083.44q.387 2.082 1.923 2.98q1.537.898 2.848.817ZM11.997 21q-2.999 0-4.998-2.063Q5 16.873 5 13.8q0-2.154 1.738-4.764T12 3.308q3.525 3.117 5.262 5.728Q19 11.646 19 13.8q0 3.073-2.003 5.137q-2.002 2.063-5 2.063ZM12 20q2.6 0 4.3-1.763T18 13.8q0-1.825-1.513-4.125T12 4.65Q9.025 7.375 7.513 9.675T6 13.8q0 2.675 1.7 4.438T12 20Zm0-7.846Z"/></svg>